<svg width="195" height="182" viewBox="0 0 195 182" fill="none" xmlns="http://www.w3.org/2000/svg">
<path d="M74.459 16.3672C84.348 0.230771 105.445 -4.834 121.582 5.05469C137.719 14.9434 142.784 36.041 132.896 52.1777L122.495 69.1494H122.649C116.634 79.577 125.404 92.3191 137.292 90.4238L139.513 90.0693C141.168 89.7519 142.857 89.5191 144.576 89.3809C170.059 87.3317 192.378 106.328 194.427 131.811C196.476 157.293 177.48 179.612 151.997 181.661C131.615 183.3 113.259 171.474 105.678 153.635L105.649 153.649L104.442 150.736C99.3037 138.332 82.8767 136.526 74.9942 146.66L63.4913 165.434C53.6024 181.57 32.504 186.635 16.3672 176.746C0.230842 166.857 -4.83392 145.76 5.05475 129.623L74.459 16.3672Z" fill="url(#paint0_linear_364_17719)"/>
<defs>
<linearGradient id="paint0_linear_364_17719" x1="107.149" y1="0.149414" x2="107.149" y2="182.149" gradientUnits="userSpaceOnUse">
<stop stop-color="#C299FC"/>
<stop offset="0.5" stop-color="#7999F3"/>
<stop offset="1" stop-color="#6DDFFA"/>
</linearGradient>
</defs>
</svg>
